# xmcd CD database file
# Copyright (C) 1997 Ti Kan
#
# Track frame offsets:
#  150
#  15625
#  31955
#  46465
#  61417
#  75877
#  91655
#  104442
#  120770
#  136972
#  153560
#  167330
#  182232
#  201705
#
# Disc length: 2845 seconds
#
# Revision: 1
# Processed by: cddbd v1.4b41PL1 Copyright (c) Steve Scherf et al.
# Submitted via: CDWizzard Release:4.24
#
DISCID=aa0b1b0e
DTITLE=Handsome Family, The - Odessa
DYEAR=1900
DGENRE=
TTITLE0=Here's Hopin'
TTITLE1=Arlene
TTITLE2=Pony
TTITLE3=One Way Up
TTITLE4=Water Into Wine
TTITLE5=Giant Ant
TTITLE6=Everything That Rises Must Converge
TTITLE7=Gorilla
TTITLE8=The Last
TTITLE9=Claire Said
TTITLE10=Moving Furniture Around
TTITLE11=Big Bad Wolf
TTITLE12=She Awoke With a Jerk
TTITLE13=Happy Harvest
EXTD=
EXTT0=
EXTT1=
EXTT2=
EXTT3=
EXTT4=
EXTT5=
EXTT6=
EXTT7=
EXTT8=
EXTT9=
EXTT10=
EXTT11=
EXTT12=
EXTT13=
PLAYORDER=
